Coordinates
nRows=125
nColumns=2
inDegrees=yes
endheader
time	ankle_angle_r	
3.22077	 -5.362608	
3.29234	 -5.335120	
3.36391	 -5.345790	
3.43548	 -5.345557	
3.50706	 -5.359055	
3.57863	 -5.366413	
3.6502	 -5.347180	
3.72177	 -5.332769	
3.79335	 -5.345675	
3.86492	 -5.350474	
3.93649	 -5.318336	
4.00806	 -5.339280	
4.07964	 -5.384149	
4.15121	 -5.356816	
4.22278	 -5.314867	
4.29435	 -5.337475	
4.36593	 -5.393889	
4.4375	 -5.392953	
4.50907	 -5.374889	
4.58065	 -5.409226	
4.65222	 -5.432068	
4.72379	 -5.400791	
4.79536	 -5.383496	
4.86694	 -5.424394	
4.93851	 -5.441867	
5.01008	 -5.408681	
5.08165	 -5.389583	
5.15323	 -5.394632	
5.2248	 -5.380711	
5.29637	 -5.328495	
5.36794	 -5.311890	
5.43952	 -5.357776	
5.51109	 -5.378036	
5.58266	 -5.342774	
5.65423	 -5.343685	
5.72581	 -5.385985	
5.79738	 -5.356319	
5.86895	 -5.289026	
5.94052	 -5.288604	
6.0121	 -5.350293	
6.08367	 -5.368472	
6.15524	 -5.343858	
6.22681	 -5.392893	
6.29839	 -5.433310	
6.36996	 -5.389606	
6.44153	 -5.354331	
6.5131	 -5.392342	
6.58468	 -5.440066	
6.65625	 -5.393358	
6.72782	 -5.345110	
6.7994	 -5.360986	
6.87097	 -5.350995	
6.94254	 -5.319412	
7.01411	 -5.310931	
7.08569	 -5.345372	
7.15726	 -5.378699	
7.22883	 -5.343905	
7.3004	 -5.314037	
7.37198	 -5.348418	
7.44355	 -5.365738	
7.51512	 -5.324735	
7.58669	 -5.304413	
7.65827	 -5.330780	
7.72984	 -5.341387	
7.80141	 -5.322843	
7.87298	 -5.332460	
7.94456	 -5.388743	
8.01613	 -5.401459	
8.0877	 -5.368479	
8.15927	 -5.385061	
8.23085	 -5.428922	
8.30242	 -5.410742	
8.37399	 -5.368843	
8.44556	 -5.405088	
8.51714	 -5.435242	
8.58871	 -5.401161	
8.66028	 -5.390274	
8.73185	 -5.414678	
8.80343	 -5.427133	
8.875	 -5.393293	
8.94657	 -5.369154	
9.01815	 -5.372498	
9.08972	 -5.351200	
9.16129	 -5.320816	
9.23286	 -5.316700	
9.30444	 -5.373080	
9.37601	 -5.400718	
9.44758	 -5.338292	
9.51915	 -5.307451	
9.59073	 -5.339985	
9.6623	 -5.346057	
9.73387	 -5.309163	
9.80544	 -5.324796	
9.87702	 -5.363095	
9.94859	 -5.337545	
10.0202	 -5.332013	
10.0917	 -5.359320	
10.1633	 -5.361771	
10.2349	 -5.364455	
10.3065	 -5.384417	
10.378	 -5.411447	
10.4496	 -5.432830	
10.5212	 -5.427321	
10.5927	 -5.416192	
10.6643	 -5.442757	
10.7359	 -5.452299	
10.8075	 -5.440662	
10.879	 -5.456938	
10.9506	 -5.459213	
11.0222	 -5.433484	
11.0937	 -5.391839	
11.1653	 -5.385896	
11.2369	 -5.426319	
11.3085	 -5.425514	
11.38	 -5.398801	
11.4516	 -5.403803	
11.5232	 -5.421111	
11.5948	 -5.391021	
11.6663	 -5.332042	
11.7379	 -5.345537	
11.8095	 -5.391747	
11.881	 -5.364406	
11.9526	 -5.317551	
12.0242	 -5.337542	
12.0958	 -5.400441	
